<?xml version="1.0" encoding="UTF-8" standalone="no"?>
<!DOCTYPE svg PUBLIC "-//W3C//DTD SVG 1.1//EN"
 "http://www.w3.org/Graphics/SVG/1.1/DTD/svg11.dtd">
<!-- Generated by graphviz version 5.0.1 (0)
 -->
<!-- Title: G Pages: 1 -->
<svg width="461pt" height="402pt"
 viewBox="0.00 0.00 460.50 402.00" xmlns="http://www.w3.org/2000/svg" xmlns:xlink="http://www.w3.org/1999/xlink">
<g id="graph0" class="graph" transform="scale(1 1) rotate(0) translate(4 398)">
<title>G</title>
<polygon fill="white" stroke="none" points="-4,4 -4,-398 456.5,-398 456.5,4 -4,4"/>
<!-- main_bb_entry -->
<g id="node1" class="node">
<title>main_bb_entry</title>
<polygon fill="none" stroke="black" points="107,-394 51,-394 51,-358 107,-358 107,-394"/>
<text text-anchor="middle" x="79" y="-375" font-family="monospace" font-size="5.00">main_bb_entry</text>
</g>
<!-- main_bb_1 -->
<g id="node2" class="node">
<title>main_bb_1</title>
<polygon fill="none" stroke="black" points="158,-322 0,-322 0,-272 158,-272 158,-322"/>
<text text-anchor="middle" x="79" y="-314" font-family="monospace" font-size="5.00">%0 = constant &quot;fibonacci(20) and fibonacci(30)&quot;</text>
<text text-anchor="middle" x="79" y="-308" font-family="monospace" font-size="5.00">call @print, %0</text>
<text text-anchor="middle" x="79" y="-302" font-family="monospace" font-size="5.00">%2 = constant 20</text>
<text text-anchor="middle" x="79" y="-296" font-family="monospace" font-size="5.00">schedule @task, %2</text>
<text text-anchor="middle" x="79" y="-290" font-family="monospace" font-size="5.00">%4 = constant 30</text>
<text text-anchor="middle" x="79" y="-284" font-family="monospace" font-size="5.00">schedule @task, %4</text>
<text text-anchor="middle" x="79" y="-278" font-family="monospace" font-size="5.00">return</text>
</g>
<!-- main_bb_entry&#45;&gt;main_bb_1 -->
<g id="edge1" class="edge">
<title>main_bb_entry&#45;&gt;main_bb_1</title>
<path fill="none" stroke="black" d="M79,-357.91C79,-350.33 79,-341.13 79,-332.23"/>
<polygon fill="black" stroke="black" points="82.5,-332.05 79,-322.05 75.5,-332.05 82.5,-332.05"/>
</g>
<!-- main_bb_exit -->
<g id="node3" class="node">
<title>main_bb_exit</title>
<polygon fill="none" stroke="black" points="106,-236 52,-236 52,-200 106,-200 106,-236"/>
<text text-anchor="middle" x="79" y="-217" font-family="monospace" font-size="5.00">main_bb_exit</text>
</g>
<!-- main_bb_1&#45;&gt;main_bb_exit -->
<g id="edge2" class="edge">
<title>main_bb_1&#45;&gt;main_bb_exit</title>
<path fill="none" stroke="black" d="M79,-271.64C79,-263.67 79,-254.77 79,-246.58"/>
<polygon fill="black" stroke="black" points="82.5,-246.38 79,-236.38 75.5,-246.38 82.5,-246.38"/>
</g>
<!-- fibonacci_bb_entry -->
<g id="node4" class="node">
<title>fibonacci_bb_entry</title>
<polygon fill="none" stroke="black" points="296.5,-394 225.5,-394 225.5,-358 296.5,-358 296.5,-394"/>
<text text-anchor="middle" x="261" y="-375" font-family="monospace" font-size="5.00">fibonacci_bb_entry</text>
</g>
<!-- fibonacci_bb_1 -->
<g id="node5" class="node">
<title>fibonacci_bb_1</title>
<polygon fill="none" stroke="black" points="331,-316 191,-316 191,-278 331,-278 331,-316"/>
<text text-anchor="middle" x="261" y="-308" font-family="monospace" font-size="5.00">%0 = alloc param</text>
<text text-anchor="middle" x="261" y="-302" font-family="monospace" font-size="5.00">%1 = load *%0</text>
<text text-anchor="middle" x="261" y="-296" font-family="monospace" font-size="5.00">%2 = constant 0</text>
<text text-anchor="middle" x="261" y="-290" font-family="monospace" font-size="5.00">%3 = lessthan, %1, %2</text>
<text text-anchor="middle" x="261" y="-284" font-family="monospace" font-size="5.00">branch %3, fibonacci_bb_2, fibonacci_bb_3</text>
</g>
<!-- fibonacci_bb_entry&#45;&gt;fibonacci_bb_1 -->
<g id="edge3" class="edge">
<title>fibonacci_bb_entry&#45;&gt;fibonacci_bb_1</title>
<path fill="none" stroke="black" d="M261,-357.91C261,-348.61 261,-336.86 261,-326.23"/>
<polygon fill="black" stroke="black" points="264.5,-326.11 261,-316.11 257.5,-326.11 264.5,-326.11"/>
</g>
<!-- fibonacci_bb_2 -->
<g id="node6" class="node">
<title>fibonacci_bb_2</title>
<polygon fill="none" stroke="black" points="186,-236 124,-236 124,-200 186,-200 186,-236"/>
<text text-anchor="middle" x="155" y="-220" font-family="monospace" font-size="5.00">%5 = constant 0</text>
<text text-anchor="middle" x="155" y="-214" font-family="monospace" font-size="5.00">return %5</text>
</g>
<!-- fibonacci_bb_1&#45;&gt;fibonacci_bb_2 -->
<g id="edge4" class="edge">
<title>fibonacci_bb_1&#45;&gt;fibonacci_bb_2</title>
<path fill="none" stroke="black" d="M236.15,-277.95C221.48,-267.3 202.77,-253.7 187.01,-242.25"/>
<polygon fill="black" stroke="black" points="188.75,-239.19 178.61,-236.15 184.64,-244.86 188.75,-239.19"/>
</g>
<!-- fibonacci_bb_3 -->
<g id="node7" class="node">
<title>fibonacci_bb_3</title>
<polygon fill="none" stroke="black" points="344,-236 204,-236 204,-200 344,-200 344,-236"/>
<text text-anchor="middle" x="274" y="-226" font-family="monospace" font-size="5.00">%7 = load *%0</text>
<text text-anchor="middle" x="274" y="-220" font-family="monospace" font-size="5.00">%8 = constant 2</text>
<text text-anchor="middle" x="274" y="-214" font-family="monospace" font-size="5.00">%9 = lessthan, %7, %8</text>
<text text-anchor="middle" x="274" y="-208" font-family="monospace" font-size="5.00">branch %9, fibonacci_bb_4, fibonacci_bb_5</text>
</g>
<!-- fibonacci_bb_1&#45;&gt;fibonacci_bb_3 -->
<g id="edge5" class="edge">
<title>fibonacci_bb_1&#45;&gt;fibonacci_bb_3</title>
<path fill="none" stroke="black" d="M264.08,-277.75C265.68,-268.28 267.67,-256.52 269.44,-246.02"/>
<polygon fill="black" stroke="black" points="272.91,-246.51 271.12,-236.06 266,-245.34 272.91,-246.51"/>
</g>
<!-- fibonacci_bb_exit -->
<g id="node8" class="node">
<title>fibonacci_bb_exit</title>
<polygon fill="none" stroke="black" points="247,-36 179,-36 179,0 247,0 247,-36"/>
<text text-anchor="middle" x="213" y="-17" font-family="monospace" font-size="5.00">fibonacci_bb_exit</text>
</g>
<!-- fibonacci_bb_2&#45;&gt;fibonacci_bb_exit -->
<g id="edge6" class="edge">
<title>fibonacci_bb_2&#45;&gt;fibonacci_bb_exit</title>
<path fill="none" stroke="black" d="M154.53,-199.78C154.36,-171.9 156.48,-115.58 174,-72 177.96,-62.14 184.19,-52.45 190.52,-44.11"/>
<polygon fill="black" stroke="black" points="193.29,-46.25 196.8,-36.26 187.82,-41.88 193.29,-46.25"/>
</g>
<!-- fibonacci_bb_4 -->
<g id="node9" class="node">
<title>fibonacci_bb_4</title>
<polygon fill="none" stroke="black" points="242.5,-136 183.5,-136 183.5,-100 242.5,-100 242.5,-136"/>
<text text-anchor="middle" x="213" y="-120" font-family="monospace" font-size="5.00">%11 = load *%0</text>
<text text-anchor="middle" x="213" y="-114" font-family="monospace" font-size="5.00">return %11</text>
</g>
<!-- fibonacci_bb_3&#45;&gt;fibonacci_bb_4 -->
<g id="edge7" class="edge">
<title>fibonacci_bb_3&#45;&gt;fibonacci_bb_4</title>
<path fill="none" stroke="black" d="M263.37,-199.93C253.9,-184.71 239.89,-162.2 229.05,-144.78"/>
<polygon fill="black" stroke="black" points="231.96,-142.84 223.71,-136.2 226.02,-146.54 231.96,-142.84"/>
</g>
<!-- fibonacci_bb_5 -->
<g id="node10" class="node">
<title>fibonacci_bb_5</title>
<polygon fill="none" stroke="black" points="355.5,-164 260.5,-164 260.5,-72 355.5,-72 355.5,-164"/>
<text text-anchor="middle" x="308" y="-156" font-family="monospace" font-size="5.00">%13 = load *%0</text>
<text text-anchor="middle" x="308" y="-150" font-family="monospace" font-size="5.00">%14 = constant 1</text>
<text text-anchor="middle" x="308" y="-144" font-family="monospace" font-size="5.00">%15 = sub, %13, %14</text>
<text text-anchor="middle" x="308" y="-138" font-family="monospace" font-size="5.00">%16 = call @fibonacci, %15</text>
<text text-anchor="middle" x="308" y="-132" font-family="monospace" font-size="5.00">%17 = alloc var %16</text>
<text text-anchor="middle" x="308" y="-126" font-family="monospace" font-size="5.00">%18 = load *%0</text>
<text text-anchor="middle" x="308" y="-120" font-family="monospace" font-size="5.00">%19 = constant 2</text>
<text text-anchor="middle" x="308" y="-114" font-family="monospace" font-size="5.00">%20 = sub, %18, %19</text>
<text text-anchor="middle" x="308" y="-108" font-family="monospace" font-size="5.00">%21 = call @fibonacci, %20</text>
<text text-anchor="middle" x="308" y="-102" font-family="monospace" font-size="5.00">%22 = alloc var %21</text>
<text text-anchor="middle" x="308" y="-96" font-family="monospace" font-size="5.00">%23 = load *%17</text>
<text text-anchor="middle" x="308" y="-90" font-family="monospace" font-size="5.00">%24 = load *%22</text>
<text text-anchor="middle" x="308" y="-84" font-family="monospace" font-size="5.00">%25 = add, %23, %24</text>
<text text-anchor="middle" x="308" y="-78" font-family="monospace" font-size="5.00">return %25</text>
</g>
<!-- fibonacci_bb_3&#45;&gt;fibonacci_bb_5 -->
<g id="edge8" class="edge">
<title>fibonacci_bb_3&#45;&gt;fibonacci_bb_5</title>
<path fill="none" stroke="black" d="M279.92,-199.93C282.52,-192.44 285.73,-183.2 289.04,-173.66"/>
<polygon fill="black" stroke="black" points="292.39,-174.68 292.36,-164.08 285.77,-172.38 292.39,-174.68"/>
</g>
<!-- fibonacci_bb_4&#45;&gt;fibonacci_bb_exit -->
<g id="edge9" class="edge">
<title>fibonacci_bb_4&#45;&gt;fibonacci_bb_exit</title>
<path fill="none" stroke="black" d="M213,-99.93C213,-85.12 213,-63.43 213,-46.23"/>
<polygon fill="black" stroke="black" points="216.5,-46.2 213,-36.2 209.5,-46.2 216.5,-46.2"/>
</g>
<!-- fibonacci_bb_5&#45;&gt;fibonacci_bb_exit -->
<g id="edge10" class="edge">
<title>fibonacci_bb_5&#45;&gt;fibonacci_bb_exit</title>
<path fill="none" stroke="black" d="M264.12,-71.73C254.74,-62.05 245.17,-52.18 236.88,-43.64"/>
<polygon fill="black" stroke="black" points="239.15,-40.95 229.68,-36.21 234.13,-45.82 239.15,-40.95"/>
</g>
<!-- task_bb_entry -->
<g id="node11" class="node">
<title>task_bb_entry</title>
<polygon fill="none" stroke="black" points="430,-394 374,-394 374,-358 430,-358 430,-394"/>
<text text-anchor="middle" x="402" y="-375" font-family="monospace" font-size="5.00">task_bb_entry</text>
</g>
<!-- task_bb_1 -->
<g id="node12" class="node">
<title>task_bb_1</title>
<polygon fill="none" stroke="black" points="452.5,-322 351.5,-322 351.5,-272 452.5,-272 452.5,-322"/>
<text text-anchor="middle" x="402" y="-314" font-family="monospace" font-size="5.00">%0 = alloc param</text>
<text text-anchor="middle" x="402" y="-308" font-family="monospace" font-size="5.00">%1 = constant &quot;computing...&quot;</text>
<text text-anchor="middle" x="402" y="-302" font-family="monospace" font-size="5.00">call @print, %1</text>
<text text-anchor="middle" x="402" y="-296" font-family="monospace" font-size="5.00">%3 = load *%0</text>
<text text-anchor="middle" x="402" y="-290" font-family="monospace" font-size="5.00">%4 = call @fibonacci, %3</text>
<text text-anchor="middle" x="402" y="-284" font-family="monospace" font-size="5.00">call @print, %4</text>
<text text-anchor="middle" x="402" y="-278" font-family="monospace" font-size="5.00">return</text>
</g>
<!-- task_bb_entry&#45;&gt;task_bb_1 -->
<g id="edge11" class="edge">
<title>task_bb_entry&#45;&gt;task_bb_1</title>
<path fill="none" stroke="black" d="M402,-357.91C402,-350.33 402,-341.13 402,-332.23"/>
<polygon fill="black" stroke="black" points="405.5,-332.05 402,-322.05 398.5,-332.05 405.5,-332.05"/>
</g>
<!-- task_bb_exit -->
<g id="node13" class="node">
<title>task_bb_exit</title>
<polygon fill="none" stroke="black" points="429,-236 375,-236 375,-200 429,-200 429,-236"/>
<text text-anchor="middle" x="402" y="-217" font-family="monospace" font-size="5.00">task_bb_exit</text>
</g>
<!-- task_bb_1&#45;&gt;task_bb_exit -->
<g id="edge12" class="edge">
<title>task_bb_1&#45;&gt;task_bb_exit</title>
<path fill="none" stroke="black" d="M402,-271.64C402,-263.67 402,-254.77 402,-246.58"/>
<polygon fill="black" stroke="black" points="405.5,-246.38 402,-236.38 398.5,-246.38 405.5,-246.38"/>
</g>
</g>
</svg>
